<svg width="33" height="40" viewBox="0 0 33 40" fill="none" xmlns="http://www.w3.org/2000/svg">
<path d="M1.52103 38.34C0.947349 37.6577 2.46996 39.1258 1.32557 37.9432C1.27661 37.7878 1.89529 38.2609 2.41922 38.8323C2.32426 38.8395 1.8495 38.3337 2.13634 38.7202C2.56135 39.0237 2.66027 39.2011 2.60972 38.999C3.2734 39.5601 3.3967 39.574 3.86472 39.9375C3.08647 39.2352 1.6027 37.6122 0.559408 36.7761C-0.0539208 36.3528 0.135789 36.7896 0 36.9197C0.0467826 37.0283 1.38167 38.3773 1.52103 38.34ZM2.38215 39.455C2.668 39.7505 2.76275 39.8338 2.95325 40C2.95048 39.9071 2.62042 39.6867 2.38215 39.455ZM1.44808 31.5429C1.48495 31.4691 1.99044 30.9225 1.84395 31.0025L1.06569 31.8193C1.25698 31.6362 1.34659 31.5935 1.44808 31.5429ZM0.72394 32.1773L1.06549 31.8193C0.975894 31.9047 0.86964 32.0146 0.72394 32.1773ZM1.49784 31.5169L1.44808 31.5429C1.44075 31.558 1.44689 31.56 1.49784 31.5169ZM14.3359 20.851C14.3613 20.8984 14.6969 20.5233 14.8654 20.3352C14.7165 20.4765 14.4996 20.667 14.3359 20.851ZM27.6493 7.40475L27.9943 7.12139C27.8652 7.21467 27.7994 7.26268 27.6493 7.40475ZM31.5148 1.60354C31.517 1.58728 31.5343 1.55847 31.5602 1.52183C31.5333 1.5573 31.5174 1.58493 31.5148 1.60354ZM31.5602 1.52163C31.7456 1.27825 32.4592 0.666461 32.6523 0.383886L32.636 0.427977L32.8454 0.194L32.9221 0.10817C32.9338 0.0948452 32.9481 0.0801483 32.9558 0.0697624C32.9603 0.0617965 32.9649 0.0538916 32.9697 0.0460508L33 0C32.9778 0.0425234 32.8105 0.203603 32.6741 0.340383L32.2261 0.791288C31.929 1.09405 31.659 1.38015 31.5602 1.52163Z" fill="black"/>
</svg>
